<?xml version="1.0" encoding="UTF-8" standalone="no"?>
<!-- Generator: Adobe Illustrator 18.0.0, SVG Export Plug-In . SVG Version: 6.00 Build 0)  -->

<svg
   xmlns:dc="http://purl.org/dc/elements/1.1/"
   xmlns:cc="http://creativecommons.org/ns#"
   xmlns:rdf="http://www.w3.org/1999/02/22-rdf-syntax-ns#"
   xmlns:svg="http://www.w3.org/2000/svg"
   xmlns="http://www.w3.org/2000/svg"
   xmlns:sodipodi="http://sodipodi.sourceforge.net/DTD/sodipodi-0.dtd"
   xmlns:inkscape="http://www.inkscape.org/namespaces/inkscape"
   version="1.1"
   id="Capa_1"
   x="0px"
   y="0px"
   viewBox="0 0 128 128"
   xml:space="preserve"
   inkscape:version="0.91 r13725"
   sodipodi:docname="github.svg"
   width="128"
   height="128"><metadata
     id="metadata43"><rdf:RDF><cc:Work
         rdf:about=""><dc:format>image/svg+xml</dc:format><dc:type
           rdf:resource="http://purl.org/dc/dcmitype/StillImage" /><dc:title></dc:title></cc:Work></rdf:RDF></metadata><defs
     id="defs41" /><sodipodi:namedview
     pagecolor="#ffffff"
     bordercolor="#666666"
     borderopacity="1"
     objecttolerance="10"
     gridtolerance="10"
     guidetolerance="10"
     inkscape:pageopacity="0"
     inkscape:pageshadow="2"
     inkscape:window-width="1366"
     inkscape:window-height="704"
     id="namedview39"
     showgrid="false"
     inkscape:zoom="2.8726213"
     inkscape:cx="1.0767913"
     inkscape:cy="52.23461"
     inkscape:window-x="0"
     inkscape:window-y="0"
     inkscape:window-maximized="1"
     inkscape:current-layer="Capa_1" /><g
     id="g9"
     transform="translate(0,15.804001)" /><g
     id="g11"
     transform="translate(0,15.804001)" /><g
     id="g13"
     transform="translate(0,15.804001)" /><g
     id="g15"
     transform="translate(0,15.804001)" /><g
     id="g17"
     transform="translate(0,15.804001)" /><g
     id="g19"
     transform="translate(0,15.804001)" /><g
     id="g21"
     transform="translate(0,15.804001)" /><g
     id="g23"
     transform="translate(0,15.804001)" /><g
     id="g25"
     transform="translate(0,15.804001)" /><g
     id="g27"
     transform="translate(0,15.804001)" /><g
     id="g29"
     transform="translate(0,15.804001)" /><g
     id="g31"
     transform="translate(0,15.804001)" /><g
     id="g33"
     transform="translate(0,15.804001)" /><g
     id="g35"
     transform="translate(0,15.804001)" /><g
     id="g37"
     transform="translate(0,15.804001)" /><g
     id="g4176"
     transform="translate(-364.08306,-153.38659)" /><g
     id="g4178"
     transform="translate(-364.08306,-153.38659)" /><g
     id="g4180"
     transform="translate(-364.08306,-153.38659)" /><g
     id="g4182"
     transform="translate(-364.08306,-153.38659)" /><g
     id="g4184"
     transform="translate(-364.08306,-153.38659)" /><g
     id="g4186"
     transform="translate(-364.08306,-153.38659)" /><g
     id="g4188"
     transform="translate(-364.08306,-153.38659)" /><g
     id="g4190"
     transform="translate(-364.08306,-153.38659)" /><g
     id="g4192"
     transform="translate(-364.08306,-153.38659)" /><g
     id="g4194"
     transform="translate(-364.08306,-153.38659)" /><g
     id="g4196"
     transform="translate(-364.08306,-153.38659)" /><g
     id="g4198"
     transform="translate(-364.08306,-153.38659)" /><g
     id="g4200"
     transform="translate(-364.08306,-153.38659)" /><g
     id="g4202"
     transform="translate(-364.08306,-153.38659)" /><g
     id="g4204"
     transform="translate(-364.08306,-153.38659)" /><path
     style="fill:#ffffff;fill-opacity:1"
     d="m 95.352393,27.109375 c -4.81455,-0.08892 -13.372579,4.496636 -15.9375,6.570313 -5.968622,-2.317496 -20.577454,-3.130131 -29.455078,0 -6.29368,-4.426225 -13.458059,-7.159219 -17.363282,-6.396485 -3.605346,7.989909 -1.286157,15.541327 -0.582031,16.441406 -4.643226,4.243094 -11.12028,9.465682 -9.361328,20.40625 2.821553,16.042081 14.10743,24.695531 32.279297,26.8125 -3.87592,0.79203 -4.532369,3.68307 -4.857422,4.9375 C 37.871345,100.91553 34.385031,92.771937 32.842627,90.650391 27.720515,84.310932 23.124067,86.150197 22.840674,86.25 c -0.275145,0.09981 -0.484379,0.499578 -0.455078,0.691406 0.258209,1.367057 3.046247,2.755021 3.183594,2.867188 3.780234,2.817436 5.180433,7.907042 6.042969,9.357422 5.422441,8.915164 18.02562,5.217884 18.146484,5.292964 L 49.291846,128 81.87583,128 81.731299,101.19531 C 81.564653,99.186392 81.348007,94.075855 76.496924,90.8125 95.756577,89.199591 104.9221,78.554855 105.58091,64.488281 106.13121,56.477771 102.94534,49.434781 97.289893,43.75 97.577403,37.669212 97.107112,30.462135 96.715674,27.294922 96.308528,27.177708 95.850451,27.118573 95.352393,27.109375 Z"
     id="path4268"
     inkscape:connector-curvature="0" /></svg>